<svg width="145" height="73" viewBox="0 0 145 73" fill="none" xmlns="http://www.w3.org/2000/svg">
<path d="M38.1741 32.6914L20.6706 7.76421V22.254C20.6706 25.9658 20.9089 32.2828 27.6856 32.2828V32.7084H12.9234V32.2828C19.3255 32.2828 20.2619 25.9148 20.2619 22.254V7.20232L18.0825 4.08643C15.2901 0.425672 13.4853 0.459725 12.2764 0.374591V0H27.0897L42.8735 22.7989V10.4034C42.8735 6.07856 41.3921 0.374591 36.233 0.374591V0H50.2972V0.374591C44.5421 0.374591 43.2821 6.07856 43.2821 10.4034V32.6914H38.1741Z" fill="white"/>
<path d="M79.4639 23.5991V32.7084H52.3403V32.2828C54.2983 32.2828 55.0305 29.4904 55.0305 26.3404V6.4191C55.0305 3.54157 54.3835 0.374591 52.3403 0.374591V0H78.851V9.51797H78.4253C78.4253 0.459723 65.7403 0.408645 65.7403 0.408645H64.0717V15.9711H67.8346C67.8857 15.9711 72.8065 16.1073 73.3173 10.4885H73.7429V21.8624H73.3173C72.8065 16.2946 67.8857 16.3798 67.8346 16.3798H64.0717V32.2657H65.7403C65.7403 32.2657 79.0212 32.7765 79.0212 23.5821H79.4639V23.5991Z" fill="white"/>
<path d="M135.142 0V0.374591C133.286 0.374591 130.459 1.80484 127.054 9.99472L118.932 32.7084H117.263C112.939 22.6286 110.163 16.1244 108.307 11.9017L100.884 32.7084H99.215C87.5176 5.34641 86.9047 4.15454 86.9047 4.15454C85.3212 0.4427 84.6742 0.493776 83.4653 0.391615V0.0170304H97.9551V0.391615C94.9754 0.391615 97.3591 5.77208 97.3591 5.77208L104.374 21.7091L108.086 11.3569C105.26 4.7675 104.97 4.15454 104.97 4.15454C103.387 0.4427 102.74 0.493776 101.531 0.391615V0.0170304H116.02V0.391615C113.041 0.391615 115.425 5.77208 115.425 5.77208L122.388 21.7432L126.56 9.99472C127.718 6.69153 126.696 0.374591 121.963 0.374591V0H135.142Z" fill="white"/>
<path d="M51.6763 40.2683V40.6429C49.8203 40.6429 46.9769 42.0902 43.5885 50.263L35.4668 72.9768H33.7981C29.4733 62.8969 26.698 56.3927 24.8421 52.17L17.4184 72.9768H15.7498C4.05237 45.6147 3.43941 44.4228 3.43941 44.4228C1.85592 40.711 1.2089 40.7621 0 40.6599V40.2853H14.4898V40.6599C11.5101 40.6599 13.8938 46.0404 13.8938 46.0404L20.9089 61.9774L24.6207 51.6252C21.7943 45.0358 21.5048 44.4228 21.5048 44.4228C19.9213 40.711 19.2743 40.7621 18.0654 40.6599V40.2853H32.5552V40.6599C29.5755 40.6599 31.9593 46.0404 31.9593 46.0404L38.9232 62.0115L43.1118 50.263C44.2696 46.9598 43.248 40.6429 38.5146 40.6429V40.2683H51.6763Z" fill="white"/>
<path d="M65.8255 40.2683H66.0639C77.8123 67.2047 78.5956 68.7371 78.5956 68.7371C80.2642 72.4489 81.8477 72.5 82.7671 72.5851V72.9597H66.5066V72.5851C70.2184 72.5851 67.443 67.1536 67.443 67.1536L65.9617 63.9526H56.8524C55.9159 66.0809 56.7673 72.5851 62.335 72.5851V72.9597H48.952V72.5851C50.3482 72.483 52.8511 72.1254 56.4267 63.9526L65.8255 40.2683ZM61.1431 53.0895L57.0056 63.5439H65.7914L61.1431 53.0895Z" fill="white"/>
<path d="M115.527 40.2683V40.6429C113.535 40.6429 110.555 42.0902 106.928 50.263L97.7848 72.9768H96.4397C83.9931 45.6147 83.3461 44.4228 83.3461 44.4228C81.6774 40.711 80.9793 40.7621 79.6853 40.6599V40.2853H95.1456V40.6599C91.9446 40.6599 94.4986 46.0404 94.4986 46.0404L101.701 62.0626L106.485 50.263C107.882 46.8236 107.047 40.6429 101.463 40.6429V40.2683H115.527Z" fill="white"/>
<path d="M145 63.8505V72.9598H117.876V72.5341C119.834 72.5341 120.567 69.7417 120.567 66.5918V46.6704C120.567 43.7929 119.92 40.6259 117.876 40.6259V40.2513H144.404V49.7693H143.978C143.978 40.7111 131.293 40.66 131.293 40.66H129.625V56.2225H133.388C133.439 56.2225 138.36 56.3587 138.87 50.7398H139.296V62.1137H138.87C138.36 56.546 133.439 56.6311 133.388 56.6311H129.625V72.5171H131.293C131.293 72.5171 144.574 73.0279 144.574 63.8334H145V63.8505Z" fill="white"/>
</svg>
