<svg width="86" height="43" viewBox="0 0 86 43" fill="none" xmlns="http://www.w3.org/2000/svg">
<path d="M22.42 19.2L12.14 4.56V13.07C12.14 15.25 12.28 18.96 16.26 18.96V19.21H7.59V18.96C11.35 18.96 11.9 15.22 11.9 13.07V4.23L10.62 2.4C8.98 0.250001 7.92 0.270001 7.21 0.220001V0H15.91L25.18 13.39V6.11C25.18 3.57 24.31 0.220001 21.28 0.220001V0H29.54V0.220001C26.16 0.220001 25.42 3.57 25.42 6.11V19.2H22.42Z" fill="black"/>
<path d="M46.67 13.86V19.21H30.74V18.96C31.89 18.96 32.32 17.32 32.32 15.47V3.77C32.32 2.08 31.94 0.220001 30.74 0.220001V0H46.31V5.59H46.06C46.06 0.27 38.61 0.240002 38.61 0.240002H37.63V9.38H39.84C39.87 9.38 42.76 9.46 43.06 6.16H43.31V12.84H43.06C42.76 9.57 39.87 9.62 39.84 9.62H37.63V18.95H38.61C38.61 18.95 46.41 19.25 46.41 13.85H46.67V13.86Z" fill="black"/>
<path d="M79.37 0V0.220001C78.28 0.220001 76.62 1.06 74.62 5.87L69.85 19.21H68.87C66.33 13.29 64.7 9.47 63.61 6.99L59.25 19.21H58.27C51.4 3.14 51.04 2.44 51.04 2.44C50.11 0.260002 49.73 0.29 49.02 0.23V0.0100021H57.53V0.23C55.78 0.23 57.18 3.39 57.18 3.39L61.3 12.75L63.48 6.67C61.82 2.8 61.65 2.44 61.65 2.44C60.72 0.260002 60.34 0.29 59.63 0.23V0.0100021H68.14V0.23C66.39 0.23 67.79 3.39 67.79 3.39L71.88 12.77L74.33 5.87C75.01 3.93 74.41 0.220001 71.63 0.220001V0H79.37Z" fill="black"/>
<path d="M30.35 23.65V23.87C29.26 23.87 27.59 24.72 25.6 29.52L20.83 42.86H19.85C17.31 36.94 15.68 33.12 14.59 30.64L10.23 42.86H9.25C2.38 26.79 2.02 26.09 2.02 26.09C1.09 23.91 0.71 23.94 0 23.88V23.66H8.51V23.88C6.76 23.88 8.16 27.04 8.16 27.04L12.28 36.4L14.46 30.32C12.8 26.45 12.63 26.09 12.63 26.09C11.7 23.91 11.32 23.94 10.61 23.88V23.66H19.12V23.88C17.37 23.88 18.77 27.04 18.77 27.04L22.86 36.42L25.32 29.52C26 27.58 25.4 23.87 22.62 23.87V23.65H30.35Z" fill="black"/>
<path d="M38.66 23.65H38.8C45.7 39.47 46.16 40.37 46.16 40.37C47.14 42.55 48.07 42.58 48.61 42.63V42.85H39.06V42.63C41.24 42.63 39.61 39.44 39.61 39.44L38.74 37.56H33.39C32.84 38.81 33.34 42.63 36.61 42.63V42.85H28.75V42.63C29.57 42.57 31.04 42.36 33.14 37.56L38.66 23.65ZM35.91 31.18L33.48 37.32H38.64L35.91 31.18Z" fill="black"/>
<path d="M67.85 23.65V23.87C66.68 23.87 64.93 24.72 62.8 29.52L57.43 42.86H56.64C49.33 26.79 48.95 26.09 48.95 26.09C47.97 23.91 47.56 23.94 46.8 23.88V23.66H55.88V23.88C54 23.88 55.5 27.04 55.5 27.04L59.73 36.45L62.54 29.52C63.36 27.5 62.87 23.87 59.59 23.87V23.65H67.85Z" fill="black"/>
<path d="M85.16 37.5V42.85H69.23V42.6C70.38 42.6 70.81 40.96 70.81 39.11V27.41C70.81 25.72 70.43 23.86 69.23 23.86V23.64H84.81V29.23H84.56C84.56 23.91 77.11 23.88 77.11 23.88H76.13V33.02H78.34C78.37 33.02 81.26 33.1 81.56 29.8H81.81V36.48H81.56C81.26 33.21 78.37 33.26 78.34 33.26H76.13V42.59H77.11C77.11 42.59 84.91 42.89 84.91 37.49H85.16V37.5Z" fill="black"/>
</svg>
