<svg width="18" height="18" viewBox="0 0 18 18" fill="none" xmlns="http://www.w3.org/2000/svg">
<path d="M12.5547 5.25074H14.0989L11.8098 1.39208C11.6254 1.07941 11.2168 0.972813 10.8985 1.15757C10.5803 1.33878 10.4718 1.74028 10.6599 2.05295L12.5547 5.25074Z" fill="black"/>
<path d="M7.31492 2.05296C7.49935 1.74029 7.39448 1.33879 7.07625 1.15758C6.75803 0.976374 6.3494 1.07941 6.16497 1.39209L3.87592 5.2543H5.42003L7.31492 2.05296Z" fill="black"/>
<path fill-rule="evenodd" clip-rule="evenodd" d="M16.6555 6.43396H1.30838C0.682782 6.43396 0.176514 6.93139 0.176514 7.54608V8.77901C0.176514 9.39369 0.682782 9.89113 1.30838 9.89113H1.66277L2.75486 15.7075C2.89228 16.3933 3.52873 16.9369 4.1905 16.9369H4.62444H7.47401H8.52271H8.86986H9.21702H10.2657H13.1153H13.5492C14.211 16.9369 14.8474 16.3933 14.9849 15.7075L16.0842 9.88757H16.6592C17.2848 9.88757 17.791 9.39014 17.791 8.77545V7.54253C17.7874 6.93139 17.2811 6.43396 16.6555 6.43396ZM6.42531 12.2468V14.7553C6.42531 15.1142 6.12878 15.3842 5.78524 15.3842C5.42 15.3842 5.14517 15.0929 5.14517 14.7553V13.7036V11.2378C5.14517 10.8789 5.4417 10.6089 5.78524 10.6089C6.15048 10.6089 6.42531 10.9002 6.42531 11.2378V12.2468ZM8.47931 14.7553V12.2468V11.2378C8.47931 10.9002 8.18278 10.6089 7.83924 10.6089C7.4957 10.6089 7.19917 10.8789 7.19917 11.2378V13.7036V14.7553C7.19917 15.0929 7.47401 15.3842 7.83924 15.3842C8.18278 15.3842 8.47931 15.1142 8.47931 14.7553ZM10.5442 13.7036V14.7553C10.5442 15.0929 10.2693 15.3842 9.90409 15.3842C9.56055 15.3842 9.26403 15.1142 9.26403 14.7553V12.2468V11.2378C9.26403 10.9002 9.56055 10.6089 9.90409 10.6089C10.2476 10.6089 10.5442 10.8789 10.5442 11.2378V13.7036ZM12.5982 14.7553V13.7036V11.2378C12.5982 10.8789 12.3016 10.6089 11.9581 10.6089C11.5929 10.6089 11.318 10.9002 11.318 11.2378V12.2468V14.7553C11.318 15.1142 11.6146 15.3842 11.9581 15.3842C12.3233 15.3842 12.5982 15.0929 12.5982 14.7553Z" fill="black"/>
</svg>
