<svg width="16" height="16" viewBox="0 0 16 16" fill="none" xmlns="http://www.w3.org/2000/svg">
<path fill-rule="evenodd" clip-rule="evenodd" d="M12.0993 10.2136L15.5656 13.6799C16.0863 14.2007 16.0863 15.0449 15.5656 15.5656C15.0448 16.0863 14.2006 16.0863 13.6799 15.5656L10.2134 12.0992C10.203 12.0888 10.1944 12.0773 10.1858 12.0659C10.1791 12.0571 10.1725 12.0483 10.165 12.04C9.13039 12.722 7.89195 13.1201 6.56 13.1201C2.93699 13.1201 0 10.183 0 6.56006C0 2.93705 2.93705 0 6.56006 0C10.1831 0 13.1201 2.93705 13.1201 6.56013C13.1201 7.89202 12.722 9.13052 12.04 10.1652C12.0483 10.1726 12.057 10.1792 12.0658 10.1858C12.0773 10.1945 12.0888 10.2031 12.0993 10.2136ZM2.2741 6.56006C2.2741 8.92711 4.19296 10.846 6.56006 10.846C8.92704 10.846 10.846 8.92711 10.846 6.56006C10.846 4.19302 8.92704 2.2741 6.56006 2.2741C4.19302 2.2741 2.2741 4.19296 2.2741 6.56006Z" fill="black"/>
</svg>
